<svg width="80" height="80" viewBox="0 0 80 80" fill="none" xmlns="http://www.w3.org/2000/svg">
<path d="M65.4921 55.0117C64.8072 56.207 63.5536 56.875 62.2767 56.875C61.6397 56.875 60.9953 56.7102 60.4044 56.3623L57.4921 54.6467L58.1164 57.0244C58.5103 58.5256 57.6224 60.0678 56.1339 60.4627C55.8943 60.5286 55.6546 60.5579 55.4184 60.5579C54.1845 60.5579 53.0551 59.7266 52.7242 58.4673L50.665 50.6251L43.7161 46.5273L43.7162 54.7891L49.3319 60.5172C50.4158 61.6232 50.4049 63.4023 49.3102 64.4945C48.7654 65.043 48.0574 65.3125 47.3493 65.3125C46.6305 65.3125 45.9111 65.0342 45.3667 64.4775L43.7161 62.7936V66.25C43.7161 68.323 42.0516 70 39.9982 70C37.9448 70 36.2803 68.323 36.2803 66.25L36.2803 62.793L34.6296 64.477C33.5476 65.583 31.7823 65.5902 30.6865 64.4989C29.5917 63.4077 29.5809 61.6278 30.6648 60.5216L36.2805 54.7935L36.1828 46.5273L29.2333 50.6207L27.1741 58.4629C26.8435 59.7227 25.7138 60.5535 24.48 60.5535C24.2437 60.5535 24.004 60.5242 23.7645 60.4583C22.2764 60.0628 21.3884 58.5212 21.7819 57.02L22.4062 54.6423L19.4939 56.3579C19.0046 56.7109 18.3604 56.875 17.7231 56.875C16.4451 56.875 15.1996 56.2084 14.509 55.0141C13.4722 53.227 14.0696 50.9312 15.8439 49.8871L18.8572 48.1117L16.4974 47.4663C15.0104 47.0664 14.1341 45.5195 14.5369 44.0195C14.9396 42.5195 16.4649 41.6406 17.9576 42.0391L25.6082 44.1367L32.6308 40L25.6082 35.8633L17.9576 37.9609C17.7126 38.0269 17.4672 38.0598 17.2258 38.0598C15.9988 38.0598 14.8729 37.2359 14.5374 35.9833C14.1341 34.4805 15.0104 32.9453 16.4974 32.5352L18.8572 31.8897L15.8439 30.1094C14.0702 29.0657 13.4724 26.7695 14.509 24.9824C15.5403 23.1918 17.8172 22.5871 19.5943 23.6348L22.5067 25.3504L21.8822 22.9727C21.4887 21.4738 22.3813 19.9316 23.7626 19.5367C25.3645 19.1301 26.7806 20.0348 27.2797 21.5324L29.3389 29.3746L36.1828 33.4727L36.1827 25.2109L30.6691 19.4781C29.5896 18.3719 29.5896 16.5918 30.6924 15.5008C31.7835 14.4051 33.5478 14.4203 34.639 15.523L36.2896 17.207L36.1828 13.75C36.1828 11.677 37.8473 10 39.9007 10C41.9541 10 43.6186 11.677 43.6186 13.75L43.6186 17.207L45.2693 15.523C46.3496 14.4208 48.1143 14.4061 49.2124 15.5011C50.3072 16.5923 50.318 18.3722 49.2341 19.4784L43.6184 25.2065L43.7161 33.4727L50.6656 29.3793L52.7248 21.5371C53.1189 20.0395 54.647 19.1348 56.1351 19.5414C57.6232 19.9369 58.5112 21.4785 58.1177 22.9797L57.4933 25.3574L60.4057 23.6418C62.1794 22.5981 64.4579 23.2023 65.491 24.9895C66.5278 26.7766 65.9304 29.0723 64.1561 30.1164L61.1428 31.8918L63.5026 32.5373C64.9896 32.9438 65.8671 34.4896 65.4632 35.9873C65.1271 37.24 64.0018 38.0638 62.7748 38.0638C62.5334 38.0638 62.2881 38.0309 62.043 37.9649L54.2907 35.8633L47.3725 40L54.3905 44.1344L62.0457 42.0402C63.542 41.6406 65.0626 42.5195 65.4688 44.0195C65.872 45.5172 64.995 47.0629 63.5083 47.4695L61.1485 48.115L64.1618 49.8904C65.9331 50.9336 66.5251 53.2305 65.4921 55.0117Z" fill="white"/>
</svg>
