<svg width="80" height="81" viewBox="0 0 80 81" fill="none" xmlns="http://www.w3.org/2000/svg">
<path d="M12.7097 30.4437C14.3521 26.5756 19.5254 18.8395 27.0802 18.8395C36.5236 18.8395 36.5236 30.4437 50.8941 30.4437C62.3904 30.4437 66.6331 22.7076 67.3174 18.8395" stroke="white" stroke-width="6" stroke-linecap="round"/>
<path d="M13.3923 45.4608C15.0347 41.5927 20.208 33.8566 27.7628 33.8566C37.2062 33.8566 37.2062 45.4608 51.5767 45.4608C63.073 45.4608 67.3158 37.7247 68.0001 33.8566" stroke="white" stroke-width="6" stroke-linecap="round"/>
<path d="M13.3923 61.1605C15.0347 57.2925 20.208 49.5564 27.7628 49.5564C37.2062 49.5564 37.2062 61.1605 51.5767 61.1605C63.0731 61.1605 67.3158 53.4244 68.0001 49.5564" stroke="white" stroke-width="6" stroke-linecap="round"/>
</svg>
