<svg width="80" height="80" viewBox="0 0 80 80" fill="none" xmlns="http://www.w3.org/2000/svg">
<g clip-path="url(#clip0_171_91)">
<path d="M62.1586 29.9258C53.4881 14.3984 28.0568 11 28.0568 11C28.0568 11 39.7916 23.9375 24.7952 34.168C15.3122 40.625 11.5631 49.0156 15.6256 58.1797C18.7363 65.1992 25.3175 68.0586 32.4095 69.125C29.0202 62.668 31.6434 54.7812 31.9336 53.9375C38.5613 64.0625 51.0854 53.9375 44.7943 42.9336C53.0354 44.7383 54.2657 59.1758 47.9398 68.1875C57.2836 65.2227 63.505 57.7695 65.2113 51.125C67.0104 44.1758 65.6407 36.1367 62.1586 29.9258Z" fill="white"/>
</g>
<defs>
<clipPath id="clip0_171_91">
<rect width="52" height="60" fill="white" transform="translate(14 11)"/>
</clipPath>
</defs>
</svg>
