<svg width="80" height="80" viewBox="0 0 80 80" fill="none" xmlns="http://www.w3.org/2000/svg">
<path d="M29.6353 18V27" stroke="white" stroke-width="5" stroke-linecap="round"/>
<path d="M13.3379 24.3378L19.5 31" stroke="white" stroke-width="5" stroke-linecap="round"/>
<path d="M15.8997 41.5406H7.00011" stroke="white" stroke-width="5" stroke-linecap="round"/>
<path d="M13.7827 56.7556L19 51.5" stroke="white" stroke-width="5" stroke-linecap="round"/>
<mask id="path-5-inside-1_171_70" fill="white">
<path fill-rule="evenodd" clip-rule="evenodd" d="M35.0533 33.9679C33.5853 32.8826 31.7695 32.241 29.8038 32.241C24.9221 32.241 20.9646 36.1984 20.9646 41.0802C20.9646 44.2315 22.6137 46.9977 25.0961 48.5628C26.4919 46.5453 28.8221 45.2236 31.4611 45.2236C31.4974 45.2236 31.5336 45.2238 31.5698 45.2243C31.2873 44.2642 31.1352 43.2434 31.1352 42.1851C31.1352 38.8172 32.6761 35.8299 35.0533 33.9679Z"/>
</mask>
<path fill-rule="evenodd" clip-rule="evenodd" d="M35.0533 33.9679C33.5853 32.8826 31.7695 32.241 29.8038 32.241C24.9221 32.241 20.9646 36.1984 20.9646 41.0802C20.9646 44.2315 22.6137 46.9977 25.0961 48.5628C26.4919 46.5453 28.8221 45.2236 31.4611 45.2236C31.4974 45.2236 31.5336 45.2238 31.5698 45.2243C31.2873 44.2642 31.1352 43.2434 31.1352 42.1851C31.1352 38.8172 32.6761 35.8299 35.0533 33.9679Z" fill="white"/>
<path d="M35.0533 33.9679L36.2865 35.5424L38.3554 33.9219L36.2422 32.3597L35.0533 33.9679ZM25.0961 48.5628L24.0294 50.2546L25.6505 51.2767L26.7409 49.7007L25.0961 48.5628ZM31.5698 45.2243L31.5423 47.2241L34.254 47.2615L33.4885 44.6598L31.5698 45.2243ZM29.8038 34.241C31.3271 34.241 32.7288 34.7366 33.8643 35.5761L36.2422 32.3597C34.4418 31.0286 32.2119 30.241 29.8038 30.241V34.241ZM22.9646 41.0802C22.9646 37.303 26.0266 34.241 29.8038 34.241V30.241C23.8175 30.241 18.9646 35.0939 18.9646 41.0802H22.9646ZM26.1627 46.871C24.2369 45.6568 22.9646 43.5163 22.9646 41.0802H18.9646C18.9646 44.9468 20.9906 48.3387 24.0294 50.2546L26.1627 46.871ZM31.4611 43.2236C28.138 43.2236 25.2046 44.8906 23.4513 47.4249L26.7409 49.7007C27.7791 48.1999 29.5063 47.2236 31.4611 47.2236V43.2236ZM31.5973 43.2245C31.5521 43.2239 31.5067 43.2236 31.4611 43.2236V47.2236C31.4881 47.2236 31.5152 47.2238 31.5423 47.2241L31.5973 43.2245ZM29.1352 42.1851C29.1352 43.4358 29.3151 44.6466 29.6511 45.7888L33.4885 44.6598C33.2596 43.8818 33.1352 43.0511 33.1352 42.1851H29.1352ZM33.82 32.3934C30.9593 34.6341 29.1352 38.2019 29.1352 42.1851H33.1352C33.1352 39.4326 34.3929 37.0256 36.2865 35.5424L33.82 32.3934Z" fill="white" mask="url(#path-5-inside-1_171_70)"/>
<ellipse cx="43.3388" cy="43.29" rx="9.6679" ry="10.2203" fill="white"/>
<path fill-rule="evenodd" clip-rule="evenodd" d="M48.5892 26.4213C49.7399 25.2292 49.7063 23.33 48.5142 22.1793C47.3221 21.0287 45.4229 21.0622 44.2722 22.2543L37.8415 28.9165C36.9388 29.8517 36.7649 31.2222 37.3076 32.325C39.0441 31.2763 41.0626 30.6757 43.2161 30.6757C43.6231 30.6757 44.0252 30.6971 44.4215 30.739L48.5892 26.4213Z" fill="white"/>
<circle cx="33.1186" cy="55.1677" r="7.73432" fill="white"/>
<ellipse cx="63.5034" cy="52.6817" rx="10.4966" ry="10.2203" fill="white"/>
<path d="M35.2064 48.0283L63.5033 46.3285V62.902H33.6709L35.2064 48.0283Z" fill="white"/>
<circle cx="54.3881" cy="42.1851" r="6.35319" fill="white"/>
</svg>
