<svg width="80" height="81" viewBox="0 0 80 81" fill="none" xmlns="http://www.w3.org/2000/svg">
<g clip-path="url(#clip0_171_24)">
<path d="M47.8125 36.1875C46.953 31.5312 42.9062 28 37.9987 28C36.4675 28 35.0138 28.2625 33.7175 28.8875C31.5375 25.9875 28.0125 24 24 24C17.3738 24 11.9988 29.2625 11.9988 35.8875C11.9988 35.95 12.03 36.0281 12.03 36.0906C7.45375 37.1125 4 41.1625 4 46C4 51.5312 8.46875 55.8875 14.0013 55.8875H46.0013C51.5325 55.8875 56.0025 51.4188 56.0025 46C56 41.1 52.475 37.0375 47.8125 36.1875ZM74.9875 35.975C66.2 37.6375 58.1125 30.9375 58.1125 22.125C58.1125 17.0462 60.8475 12.375 65.3 9.85875C65.9876 9.46812 65.8096 8.4375 65.0284 8.29625C63.95 8.09422 62.85 8 61.725 8C51.99 8 44.0875 15.6562 43.675 25.2375C47.0187 26.7225 49.7075 29.4725 51.035 32.9562C55.6763 34.7375 59.0363 38.8787 59.8175 43.8C60.4583 43.8625 61.0737 43.9902 61.73 43.9902C67.3088 43.9902 72.4125 41.4715 75.7925 37.3315C76.325 36.725 75.775 35.825 74.9875 35.975ZM46.5125 61.3375L42.5125 67.3375C41.5944 68.7163 41.9655 70.58 43.3446 71.4975C43.85 71.8375 44.425 72 44.8875 72C45.8564 72 46.81 71.5312 47.3875 70.6637L51.3875 64.6637C52.3056 63.285 51.9345 61.4212 50.5554 60.5037C49.2875 59.5875 47.425 59.9625 46.5125 61.3375ZM34.5 61.3375L30.5 67.3375C29.5819 68.7163 29.953 70.58 31.3321 71.4975C31.85 71.8375 32.425 72 32.8875 72C33.8564 72 34.81 71.5312 35.3875 70.6637L39.3875 64.6637C40.3056 63.285 39.9345 61.4212 38.5554 60.5037C37.2875 59.5875 35.425 59.9625 34.5 61.3375ZM22.5 61.3375L18.5 67.3375C17.5819 68.7163 17.953 70.58 19.3321 71.4975C19.85 71.8375 20.425 72 20.8875 72C21.8564 72 22.81 71.5312 23.3875 70.6637L27.3875 64.6637C28.3056 63.285 27.9345 61.4212 26.5554 60.5037C25.2875 59.5875 23.425 59.9625 22.5 61.3375ZM10.5037 61.3375L6.50375 67.3375C5.58563 68.7163 5.95675 70.58 7.33588 71.4975C7.8475 71.8375 8.42625 72 8.99625 72C9.96513 72 10.9188 71.5312 11.4963 70.6637L15.4963 64.6637C16.4144 63.285 16.0433 61.4212 14.6641 60.5037C13.2812 59.5875 11.4262 59.9625 10.5037 61.3375Z" fill="#F0F0F0"/>
</g>
<defs>
<clipPath id="clip0_171_24">
<rect width="72" height="64" fill="white" transform="translate(4 8)"/>
</clipPath>
</defs>
</svg>
