<svg width="80" height="80" viewBox="0 0 80 80" fill="none" xmlns="http://www.w3.org/2000/svg">
<circle cx="11.0368" cy="45.1044" r="5.40157" fill="white"/>
<circle cx="26.1778" cy="46.1684" r="4.41947" fill="white"/>
<rect x="10.5459" y="42.4036" width="15.55" height="8.1842" fill="white"/>
<circle cx="19.3848" cy="39.7028" r="5.89262" fill="white"/>
<ellipse cx="51.9961" cy="53.8417" rx="7.33599" ry="7.75519" fill="white"/>
<circle cx="44.2409" cy="62.8545" r="5.86879" fill="white"/>
<ellipse cx="67.2968" cy="60.9681" rx="7.96479" ry="7.75519" fill="white"/>
<path d="M45.8253 57.4372L67.2969 56.1473V68.7233H44.6602L45.8253 57.4372Z" fill="white"/>
<circle cx="60.3801" cy="53.0033" r="4.82079" fill="white"/>
<path fill-rule="evenodd" clip-rule="evenodd" d="M40.7086 12.805C42.3655 12.805 43.7086 14.1481 43.7086 15.805V25.5785C43.7086 27.2353 42.3655 28.5785 40.7086 28.5785C39.0517 28.5785 37.7086 27.2353 37.7086 25.5785V15.805C37.7086 14.1481 39.0517 12.805 40.7086 12.805ZM20.0324 20.6104C21.2321 19.4677 23.1311 19.5139 24.2738 20.7136L30.6723 27.4309C31.815 28.6306 31.7688 30.5295 30.5691 31.6723C29.3694 32.815 27.4705 32.7689 26.3277 31.5691L19.9293 24.8518C18.7866 23.6521 18.8327 21.7532 20.0324 20.6104ZM53.4629 49.9014C52.2913 48.7298 50.3918 48.7298 49.2203 49.9014C48.0487 51.0729 48.0487 52.9724 49.2203 54.144L57.4436 62.3673C58.6152 63.5389 60.5147 63.5389 61.6862 62.3673C62.8578 61.1958 62.8578 59.2963 61.6862 58.1247L53.4629 49.9014ZM69.2939 41.39C69.2939 43.0468 67.9507 44.39 66.2939 44.39H56.4999C54.8431 44.39 53.4999 43.0468 53.4999 41.39C53.4999 39.7331 54.8431 38.39 56.4999 38.39H66.2939C67.9507 38.39 69.2939 39.7331 69.2939 41.39ZM61.7775 24.8084C62.8963 23.5863 62.8125 21.6886 61.5904 20.5699C60.3682 19.4511 58.4706 19.5349 57.3518 20.757L50.2872 28.4743C49.1685 29.6964 49.2522 31.5941 50.4744 32.7128C51.6965 33.8316 53.5941 33.7478 54.7129 32.5257L61.7775 24.8084Z" fill="white"/>
<path fill-rule="evenodd" clip-rule="evenodd" d="M51.1048 43.6326C51.26 42.9096 51.3418 42.1593 51.3418 41.39C51.3418 35.5177 46.5813 30.7572 40.709 30.7572C34.8527 30.7572 30.1022 35.4919 30.0764 41.3422C31.857 42.3862 33.0527 44.3201 33.0527 46.5333C33.0527 47.1981 32.9448 47.8378 32.7456 48.4356C34.6936 50.6357 37.5394 52.0227 40.709 52.0227C41.176 52.0227 41.6359 51.9926 42.0869 51.9342C42.617 47.257 46.3832 43.6312 50.9504 43.6312C51.002 43.6312 51.0535 43.6317 51.1048 43.6326Z" fill="white"/>
<path fill-rule="evenodd" clip-rule="evenodd" d="M25.3601 52.3327L19.3618 58.0798C18.1654 59.2261 18.1248 61.1251 19.2711 62.3215C20.4173 63.5179 22.3164 63.5585 23.5127 62.4122L31.0755 55.1662C32.2524 54.0385 32.3108 52.1823 31.221 50.9833C30.2442 51.8247 28.9726 52.3333 27.5822 52.3333C26.7315 52.3636 25.9957 52.3624 25.3601 52.3327Z" fill="white"/>
</svg>
