<svg width="80" height="81" viewBox="0 0 80 81" fill="none" xmlns="http://www.w3.org/2000/svg">
<g clip-path="url(#clip0_171_25)">
<path d="M47.2425 52.0875C47.9513 50.8844 48.3827 49.4938 48.3827 47.9938C48.3827 43.5875 44.8389 39.9937 40.6048 39.9937C38.4785 39.9937 36.5679 40.8531 35.1503 42.2275C33.0302 38.525 29.1844 35.8875 24.6113 35.8875C18.0783 35.8875 12.7779 41.27 12.7779 47.895C12.7779 48.145 12.8399 48.3559 12.8553 48.6059C8.23293 50.2309 4.89001 54.6534 4.89001 59.8871C4.99939 66.5125 10.2991 72 16.8321 72H46.3045C51.7589 72 56.0546 67.5312 56.0546 62C56.1668 56.7625 52.2963 52.525 47.2425 52.0875ZM74.6687 45.3C63.2052 47.5187 52.6661 38.5975 52.6661 26.85C52.6661 20.0688 56.1298 13.85 62.049 10.4875C62.958 9.97187 62.7115 8.5975 61.71 8.40875C60.2715 8.14062 58.8293 8 57.2762 8C44.2225 8 33.6219 18.735 33.6219 32C33.6219 33.0625 33.6989 34.0938 33.8376 35.125C34.5617 35.6562 35.2699 36.2344 35.9022 36.9062C37.3074 36.3125 38.9222 36 40.389 36C46.9072 36 52.1114 41.3913 52.1114 48C52.1114 48.4531 52.0806 48.9062 52.0344 49.3438C54.9459 50.6875 57.2571 53.0312 58.629 55.9062C65.3321 55.4844 71.4115 52.25 75.5285 47.11C76.3944 46.3 75.6918 45.1 74.6687 45.3Z" fill="#F0F0F0"/>
</g>
<defs>
<clipPath id="clip0_171_25">
<rect width="71" height="64" fill="white" transform="translate(5 8)"/>
</clipPath>
</defs>
</svg>
