<svg width="80" height="81" viewBox="0 0 80 81" fill="none" xmlns="http://www.w3.org/2000/svg">
<g clip-path="url(#clip0_171_23)">
<path d="M57.5004 26.75C57.432 26.75 57.3773 26.7769 57.3227 26.7769C57.4457 26.2129 57.5004 25.6328 57.5004 25.0312C57.5004 20.2778 53.5902 16.4375 48.8488 16.4375C46.156 16.4375 43.7902 17.646 42.2754 19.5259C40.0441 15.6587 35.9863 13 31.2504 13C24.5019 13 19.0004 18.3851 19.0004 25.0312C19.0004 25.8101 19.0825 26.562 19.2329 27.314C15.0366 28.6621 12.001 32.4971 12.001 37.0625C12.001 42.7559 16.6057 47.375 22.4025 47.375H57.3041C63.2973 47.375 68.0004 42.7559 68.0004 37.0625C68.0004 31.3691 63.2973 26.75 57.5004 26.75ZM33.7441 51.0166C32.413 50.456 30.8676 51.0602 30.2966 52.369L25.1451 64.4003C24.5742 65.7098 25.1912 67.2266 26.5243 67.7873C26.6676 67.9355 27.116 68 27.4551 68C28.4736 68 29.4424 67.4158 29.8701 66.4392L35.0216 54.4079C35.691 53.1006 34.9801 51.5859 33.7441 51.0166ZM20.9101 51.0166C19.5768 50.456 18.0335 51.0602 17.4626 52.369L12.311 64.4003C11.6421 65.7119 12.2591 67.2266 13.5918 67.7959C13.9287 67.9355 14.2787 68 14.6243 68C15.6428 68 16.6116 67.4158 17.0393 66.4392L22.1909 54.4079C22.8602 53.1006 22.2423 51.5859 20.9101 51.0166ZM46.5738 51.0166C45.2405 50.456 43.6973 51.0602 43.1263 52.369L37.9748 64.4003C37.4039 65.7098 38.0209 67.2266 39.354 67.7873C39.5957 67.9355 39.9457 68 40.2957 68C41.3142 68 42.283 67.4158 42.7107 66.4392L47.8623 54.4079C48.4332 53.1006 47.9082 51.5859 46.5738 51.0166ZM59.4145 51.0166C58.0834 50.456 56.5401 51.0602 55.967 52.369L50.8154 64.4003C50.2446 65.7098 50.8615 67.2266 52.1946 67.7873C52.4254 67.9355 52.7754 68 53.027 68C54.0455 68 55.0143 67.4158 55.442 66.4392L60.5935 54.4079C61.3613 53.1006 60.7379 51.5859 59.4145 51.0166Z" fill="#F0F0F0"/>
</g>
<defs>
<clipPath id="clip0_171_23">
<rect width="56" height="55" fill="white" transform="translate(12 13)"/>
</clipPath>
</defs>
</svg>
