<svg width="80" height="80" viewBox="0 0 80 80" fill="none" xmlns="http://www.w3.org/2000/svg">
<path d="M51.25 51.1445H42.9004L48.4598 38.793C48.8186 37.9983 48.5806 37.0574 47.8848 36.5301C47.1854 36.0064 46.2184 36.0248 45.5481 36.585L27.5481 51.585C26.9439 52.0903 26.7168 52.9221 26.9879 53.6616C27.2552 54.405 27.9583 54.8991 28.7492 54.8991H37.0988L31.5394 67.2506C31.1806 68.0453 31.4186 68.9862 32.1143 69.5135C32.4531 69.8711 32.7461 70 33.25 70C33.6784 70 34.1032 69.8535 34.4512 69.5642L52.4512 54.5642C53.0554 54.0589 53.2825 53.2271 53.0114 52.4876C52.75 51.7422 52.0469 51.1445 51.25 51.1445ZM58.75 25C58.6768 25 58.6182 25.0293 58.5596 25.0293C58.6914 24.4141 58.75 23.7812 58.75 23.125C58.75 17.9395 54.5664 13.75 49.375 13.75C46.4898 13.75 43.9551 15.0684 42.2266 17.1191C40.0469 12.9004 35.6992 10 30.625 10C23.3711 10 17.5 15.8746 17.5 23.125C17.5 23.9746 17.5879 24.7949 17.749 25.6152C13.252 27.0859 10 31.2695 10 36.25C10 42.4609 15.0391 47.5 21.25 47.5H26.7145L43.1441 33.8125C44.1525 32.9693 45.4328 32.5047 46.7488 32.5047C47.9605 32.5047 49.1629 32.905 50.1508 33.6454C52.2555 35.2403 52.9656 38.0341 51.8805 40.4364L48.6953 47.5H58.75C64.9609 47.5 70 42.4609 70 36.25C70 30.0391 64.9609 25 58.75 25Z" fill="white"/>
</svg>
