<svg width="80" height="80" viewBox="0 0 80 80" fill="none" xmlns="http://www.w3.org/2000/svg">
<path d="M14.625 32.75H50.875C56.8721 32.75 61.75 27.8721 61.75 21.875C61.75 15.8779 56.8721 11 50.875 11H47.25C45.2461 11 43.625 12.6211 43.625 14.625C43.625 16.6289 45.2461 18.25 47.25 18.25H50.875C52.8755 18.25 54.5 19.8745 54.5 21.875C54.5 23.8755 52.8755 25.5 50.875 25.5H14.625C12.6211 25.5 11 27.1199 11 29.125C11 31.1301 12.6211 32.75 14.625 32.75ZM29.125 47.25H14.625C12.6211 47.25 11 48.8711 11 50.875C11 52.8789 12.6211 54.5 14.625 54.5H29.125C31.1255 54.5 32.75 56.1245 32.75 58.125C32.75 60.1255 31.1255 61.75 29.125 61.75H25.5C23.4961 61.75 21.875 63.3711 21.875 65.375C21.875 67.3789 23.4961 69 25.5 69H29.125C35.1221 69 40 64.1221 40 58.125C40 52.1279 35.1176 47.25 29.125 47.25ZM58.125 36.375H14.625C12.6211 36.375 11 37.9949 11 40C11 42.0051 12.6211 43.625 14.625 43.625H58.125C60.1255 43.625 61.75 45.2495 61.75 47.25C61.75 49.2505 60.1255 50.875 58.125 50.875H54.5C52.4961 50.875 50.875 52.4961 50.875 54.5C50.875 56.5039 52.4961 58.125 54.5 58.125H58.125C64.1221 58.125 69 53.2471 69 47.25C69 41.2529 64.1176 36.375 58.125 36.375Z" fill="white"/>
</svg>
