<svg width="85" height="85" viewBox="0 0 85 85" fill="none" xmlns="http://www.w3.org/2000/svg">
<path d="M29.2188 42.5C29.2188 35.1621 35.1621 29.2188 42.5 29.2188C49.8379 29.2188 55.7812 35.1621 55.7812 42.5C55.7812 49.8379 49.8379 55.7812 42.5 55.7812C35.1621 55.7812 29.2188 49.8379 29.2188 42.5ZM42.5 0C45.4385 0 47.8125 2.379 47.8125 5.3125V11.0649C61.1602 13.3045 71.7021 23.8398 73.9268 37.1875H79.6875C82.626 37.1875 85 39.5615 85 42.5C85 45.4385 82.626 47.8125 79.6875 47.8125H73.9268C71.7021 61.1602 61.1602 71.7021 47.8125 73.9268V79.6875C47.8125 82.626 45.4385 85 42.5 85C39.5615 85 37.1875 82.626 37.1875 79.6875V73.9268C23.8398 71.7021 13.3045 61.1602 11.0649 47.8125H5.3125C2.379 47.8125 0 45.4385 0 42.5C0 39.5615 2.379 37.1875 5.3125 37.1875H11.0649C13.3045 23.8398 23.8398 13.3045 37.1875 11.0649V5.3125C37.1875 2.379 39.5615 0 42.5 0ZM21.25 42.5C21.25 54.2373 30.7627 63.75 42.5 63.75C54.2373 63.75 63.75 54.2373 63.75 42.5C63.75 30.7627 54.2373 21.25 42.5 21.25C30.7627 21.25 21.25 30.7627 21.25 42.5Z" fill="#4E4F53"/>
</svg>
